<?xml version="1.0" encoding="UTF-8" standalone="no"?>
<!-- Generator: Gravit.io -->

<svg
   style="isolation:isolate"
   viewBox="-417.5 -1396.5 1546.8397 1273.5934"
   width="1546.8397"
   height="1273.5934"
   version="1.1"
   id="svg41"
   sodipodi:docname="3-view.svg"
   inkscape:version="1.4 (86a8ad7, 2024-10-11)"
   xmlns:inkscape="http://www.inkscape.org/namespaces/inkscape"
   xmlns:sodipodi="http://sodipodi.sourceforge.net/DTD/sodipodi-0.dtd"
   xmlns="http://www.w3.org/2000/svg"
   xmlns:svg="http://www.w3.org/2000/svg">
  <defs
     id="defs41" />
  <sodipodi:namedview
     id="namedview41"
     pagecolor="#ffffff"
     bordercolor="#000000"
     borderopacity="0.25"
     inkscape:showpageshadow="2"
     inkscape:pageopacity="0.0"
     inkscape:pagecheckerboard="0"
     inkscape:deskcolor="#d1d1d1"
     inkscape:zoom="0.34212766"
     inkscape:cx="260.13682"
     inkscape:cy="694.18532"
     inkscape:window-width="1920"
     inkscape:window-height="1009"
     inkscape:window-x="-8"
     inkscape:window-y="-8"
     inkscape:window-maximized="1"
     inkscape:current-layer="svg41" />
  <g
     id="g43"
     transform="matrix(0,1,1,0,2214.4067,-1939.001)"
     inkscape:export-filename="right.png"
     inkscape:export-xdpi="96"
     inkscape:export-ydpi="96">
    <path
       d="m 866.725,-1198.832 45.153,-23.725 14.541,-6.122 13.01,-5.357 17.602,-4.592 13.011,-1.531 10.714,-0.765 h 7.653 l 7.653,0.765 9.184,1.531 19.898,5.357 10.714,3.061 18.367,6.123 24.49,8.418 39.796,13.776 32.143,10.714 15.306,4.592 9.949,3.061 14.541,3.826 13.775,3.062 12.245,2.296 10.714,1.53 10.715,1.531 8.418,0.765 16.072,0.765 19.132,0.766 18.368,0.765 20.663,0.765 h 11.479 l 2.221,-6.124 19.973,-55.1 18.368,-51.276 13.109,-34.957 c 0.475,-1.267 1.406,-1.852 2.771,-1.777 6.724,-0.43 19.51,-0.399 38.265,0 1.176,0.14 1.793,0.709 1.831,1.683 l 3.718,57.245 5.357,70.408 3.826,52.806 1.531,17.603 v 0.765 c -0.255,0.893 -0.758,1.41 -1.531,1.53 h -6.888 -26.785 l -97.959,2.296 -26.786,0.766 -17.602,0.765 -20.663,0.765 -29.847,1.531 -10.715,0.765 -32.908,1.531 -30.612,2.296 -33.674,2.296 -32.908,3.061 -48.979,4.592 -35.97,3.061 -26.02,2.296 -14.541,1.53 -9.184,0.766 -14.54,0.765 H 909.582 890.45 868.256 832.287 812.389 775.654 l -39.796,-1.531 -48.98,-1.53 -8.418,-0.765 -8.418,-0.766 -10.715,-1.53 -13.775,-3.062 -13.776,-3.826 -11.479,-3.827 -6.888,-3.061 -3.827,-0.765 -3.061,-0.765 -3.061,-0.766 -3.827,-0.765 -4.591,-1.531 -4.592,-1.53 -5.357,-1.531 -3.827,-1.531 -5.357,-2.295 -7.653,-3.062 -4.592,-2.296 -3.826,-2.296 -5.358,-3.061 -5.357,-3.826 -2.296,-2.296 -1.53,-1.531 -1.531,-2.296 -0.765,-1.53 v -1.531 -1.531 l 1.53,-2.295 1.531,-1.531 2.296,-2.296 3.061,-2.296 5.357,-3.826 5.357,-3.062 6.123,-3.061 5.357,-2.296 5.357,-2.296 6.123,-2.296 5.357,-1.53 7.653,-2.296 7.653,-2.296 6.888,-1.531 6.887,-1.53 18.368,-3.062 9.949,-1.53 6.122,-0.765 10.714,-1.531 9.949,-0.765 12.245,-1.531 18.368,-1.531 22.194,-1.53 11.479,-0.766 17.602,-0.765 22.194,-0.765 16.837,-0.765 15.306,-0.766 22.194,-0.765 h 16.071 l 3.827,-0.765 3.826,-0.766 3.062,-0.765 2.295,-0.765 z"
       fill="none"
       vector-effect="non-scaling-stroke"
       stroke-width="1"
       stroke="rgb(255,255,255)"
       stroke-opacity="100"
       stroke-linejoin="miter"
       stroke-linecap="square"
       stroke-miterlimit="3"
       id="path1"
       style="fill:none;stroke:#000000;stroke-width:1;stroke-dasharray:none;stroke-opacity:1" />
    <line
       x1="1416.215"
       y1="-1316.689"
       x2="1407.797"
       y2="-1114.649"
       vector-effect="non-scaling-stroke"
       stroke-width="0.5"
       stroke="rgb(255,255,255)"
       stroke-opacity="100"
       stroke-linejoin="miter"
       stroke-linecap="square"
       stroke-miterlimit="3"
       id="line1"
       style="fill:none;stroke:#000000;stroke-width:1;stroke-dasharray:none;stroke-opacity:1" />
    <path
       d="m 937.133,-1126.128 3.827,10.714 19.133,-3.061 h 8.418"
       fill="none"
       vector-effect="non-scaling-stroke"
       stroke-width="0.5"
       stroke="rgb(255,255,255)"
       stroke-opacity="100"
       stroke-linejoin="miter"
       stroke-linecap="square"
       stroke-miterlimit="3"
       id="path2"
       style="fill:none;stroke:#000000;stroke-width:1;stroke-dasharray:none;stroke-opacity:1" />
    <path
       d="m 866.725,-1198.832 3.827,2.081 c 1.38,0.831 4.331,1.887 6.076,1.745 21.055,1.107 55.779,1.122 104.128,1.531 h 9.184 c 2.487,-0.319 4.536,-1.077 6.122,-2.296 l 35.969,-35.204"
       fill="none"
       vector-effect="non-scaling-stroke"
       stroke-width="1"
       stroke="rgb(255,255,255)"
       stroke-opacity="100"
       stroke-linejoin="miter"
       stroke-linecap="square"
       stroke-miterlimit="3"
       id="path3"
       style="fill:none;stroke:#000000;stroke-width:1;stroke-dasharray:none;stroke-opacity:1" />
    <path
       d="m 1154.442,-1176.256 h 0.383 v 0.039 l -0.383,-0.039 -164.541,-16.836 -0.382,-0.039 v -0.344 h 2.716 z"
       fill="rgb(255,255,255)"
       id="path4"
       style="fill:none;stroke:#000000;stroke-width:1;stroke-dasharray:none;stroke-opacity:1" />
    <line
       x1="612.64398"
       y1="-1105.465"
       x2="612.64398"
       y2="-1175.108"
       vector-effect="non-scaling-stroke"
       stroke-width="1"
       stroke="rgb(255,255,255)"
       stroke-opacity="100"
       stroke-linejoin="miter"
       stroke-linecap="square"
       stroke-miterlimit="3"
       id="line4"
       style="fill:none;stroke:#000000;stroke-width:1;stroke-dasharray:none;stroke-opacity:1" />
    <path
       d="m 912.644,-1140.669 c -2.721,6.444 -2.968,12.318 -0.766,17.602"
       fill="none"
       vector-effect="non-scaling-stroke"
       stroke-width="0.5"
       stroke="rgb(255,255,255)"
       stroke-opacity="100"
       stroke-linejoin="miter"
       stroke-linecap="square"
       stroke-miterlimit="3"
       id="path5"
       style="fill:none;stroke:#000000;stroke-width:1;stroke-dasharray:none;stroke-opacity:1" />
    <path
       d="m 612.644,-1149.087 h 18.104 c 0.638,0.12 1.004,0.398 1.028,0.765 v 6.122 c -0.518,1.316 -1.275,2.089 -2.296,2.296 h -16.836 z"
       fill="none"
       vector-effect="non-scaling-stroke"
       stroke-width="1"
       stroke="rgb(255,255,255)"
       stroke-opacity="100"
       stroke-linejoin="miter"
       stroke-linecap="square"
       stroke-miterlimit="3"
       id="path6"
       style="fill:none;stroke:#000000;stroke-width:1;stroke-dasharray:none;stroke-opacity:1" />
    <path
       d="m 961.715,-1131.103 0.383,-0.038 0.084,0.758 -0.383,0.046 -7.002,0.757 -3.819,0.766 -9.184,1.53 -11.487,2.296 -10.73,1.538 -8.449,0.766 h -16.852 -15.321 l -12.26,-0.766 -6.911,-0.765 -8.434,-1.538 -3.826,-0.765 -4.615,-0.766 -2.35,-0.788 -1.668,-0.834 -0.497,-0.987 -14.954,27.673 -0.345,0.199 -0.513,-0.23 0.184,-0.336 15.658,-28.96 1.033,2.074 1.393,0.697 2.243,0.742 4.569,0.766 3.826,0.765 8.403,1.523 6.865,0.765 12.229,0.765 h 15.291 16.822 l 8.387,-0.765 10.699,-1.523 11.472,-2.296 9.184,-1.53 3.834,-0.766 z"
       fill="rgb(255,255,255)"
       vector-effect="non-scaling-stroke"
       stroke-width="0.1"
       stroke="rgb(255,255,255)"
       stroke-linejoin="miter"
       stroke-linecap="square"
       stroke-miterlimit="3"
       id="path7"
       style="fill:none;stroke:#000000;stroke-width:1;stroke-dasharray:none;stroke-opacity:1" />
    <path
       d="m 812.741,-1097.965 0.153,0.352 -0.505,0.306 -0.352,-0.352 c -0.054,-0.138 -0.085,-0.275 -0.085,-0.428 0.016,-0.283 0.107,-0.567 0.268,-0.804 0.184,-0.275 0.406,-0.528 0.658,-0.742 0.306,-0.276 0.643,-0.521 0.995,-0.743 0.421,-0.26 0.865,-0.497 1.317,-0.704 1.117,-0.505 2.28,-0.895 3.482,-1.163 1.454,-0.329 2.931,-0.513 4.423,-0.543 l 0.383,-0.01 -0.375,0.551 0.007,0.222 c -1.438,0.031 -2.869,0.207 -4.27,0.528 -1.148,0.253 -2.265,0.62 -3.337,1.11 -0.421,0.191 -0.834,0.413 -1.224,0.658 -0.322,0.199 -0.62,0.421 -0.896,0.666 -0.206,0.176 -0.382,0.375 -0.528,0.597 -0.084,0.114 -0.13,0.252 -0.137,0.398 0,0.038 0.007,0.069 0.023,0.099 z"
       fill="rgb(255,255,255)"
       vector-effect="non-scaling-stroke"
       stroke-width="0.1"
       stroke="rgb(255,255,255)"
       stroke-linejoin="miter"
       stroke-linecap="square"
       stroke-miterlimit="3"
       id="path8"
       style="fill:none;stroke:#000000;stroke-width:1;stroke-dasharray:none;stroke-opacity:1" />
    <path
       d="m 838.753,-1130.552 -0.176,0.345 -0.681,-0.345 0.169,-0.336 0.811,-1.623 2.403,-1.599 3.107,-1.554 4.63,-1.546 6.161,-1.538 6.145,-0.773 15.322,-1.531 12.26,-0.765 h 14.571 l 9.215,0.765 9.972,1.539 10.729,2.296 15.306,3.826 3.819,0.765 3.811,0.766 5.671,0.788 12.917,23.367 3.155,5.707 27.941,2.954 c 0.01,0 0.023,0.01 0.038,0.01 0.291,0.061 0.567,0.199 0.796,0.39 0.207,0.199 0.322,0.474 0.314,0.758 0,0.01 0,0.01 0,0.015 v 0.076 c -0.01,0.276 -0.107,0.544 -0.276,0.758 -0.183,0.214 -0.428,0.36 -0.704,0.429 -5.824,0.474 -11.648,1.01 -17.456,1.599 -5.541,0.559 -11.074,1.141 -16.615,1.737 -6.612,0.72 -13.225,1.401 -19.852,2.044 -6.168,0.604 -12.352,1.087 -18.543,1.454 -10.256,0.582 -20.511,1.041 -30.773,1.377 -8.763,0.284 -17.526,0.429 -26.296,0.444 -4.699,0 -9.406,-0.053 -14.113,-0.168 -4.125,-0.1 -8.25,-0.26 -12.375,-0.49 -3.558,-0.191 -7.102,-0.451 -10.645,-0.788 -2.985,-0.283 -5.962,-0.643 -8.923,-1.087 -2.419,-0.36 -4.814,-0.811 -7.194,-1.37 -1.86,-0.421 -3.689,-0.964 -5.48,-1.63 -0.719,-0.275 -1.416,-0.581 -2.105,-0.918 -0.581,-0.291 -1.14,-0.628 -1.676,-0.995 -0.451,-0.314 -0.872,-0.674 -1.255,-1.072 -0.336,-0.344 -0.612,-0.734 -0.834,-1.163 v -0.444 l 0.513,-0.245 0.176,0.337 c 0.184,0.36 0.413,0.697 0.696,0.987 0.345,0.36 0.727,0.689 1.141,0.972 0.505,0.345 1.033,0.659 1.584,0.934 0.658,0.329 1.339,0.628 2.028,0.888 1.76,0.65 3.559,1.194 5.38,1.607 2.365,0.543 4.745,1.002 7.14,1.355 2.947,0.443 5.908,0.803 8.878,1.079 3.536,0.336 7.071,0.597 10.615,0.796 4.117,0.221 8.234,0.382 12.359,0.482 4.692,0.114 9.391,0.168 14.09,0.168 8.762,-0.015 17.518,-0.161 26.273,-0.444 10.255,-0.337 20.502,-0.788 30.75,-1.377 6.183,-0.368 12.352,-0.85 18.52,-1.454 6.612,-0.643 13.232,-1.324 19.844,-2.044 5.534,-0.597 11.074,-1.171 16.615,-1.729 5.794,-0.59 11.595,-1.125 17.403,-1.6 0.092,-0.031 0.176,-0.084 0.245,-0.161 0.061,-0.084 0.1,-0.183 0.1,-0.29 0,-0.01 0,-0.01 0,-0.01 v -0.077 c 0,-0.061 -0.023,-0.13 -0.069,-0.176 -0.123,-0.099 -0.268,-0.168 -0.421,-0.206 l -28.316,-2.993 -16.072,-29.089 -5.311,-0.742 -3.842,-0.766 -3.834,-0.765 -15.306,-3.826 -10.699,-2.296 -9.926,-1.523 -9.153,-0.766 h -14.511 l -12.229,0.766 -15.291,1.53 -6.099,0.758 -6.085,1.523 -4.553,1.515 -3.015,1.508 -2.189,1.462 z"
       fill="rgb(255,255,255)"
       vector-effect="non-scaling-stroke"
       stroke-width="0.1"
       stroke="rgb(255,255,255)"
       stroke-linejoin="miter"
       stroke-linecap="square"
       stroke-miterlimit="3"
       id="path9"
       style="fill:none;stroke:#000000;stroke-width:1;stroke-dasharray:none;stroke-opacity:1" />
    <path
       d="m 1310.22,-1163.605 -0.023,0.382 -0.359,-0.053 -0.383,-0.375 c 0.023,-0.398 0.199,-0.773 0.474,-1.049 0.337,-0.329 0.727,-0.597 1.164,-0.773 0.566,-0.26 1.163,-0.459 1.767,-0.612 0.804,-0.199 1.615,-0.359 2.427,-0.482 1.025,-0.161 2.058,-0.283 3.091,-0.375 1.248,-0.115 2.495,-0.207 3.75,-0.268 3.169,-0.153 6.345,-0.222 9.521,-0.214 4.094,0.01 8.189,0.076 12.283,0.214 5.005,0.161 10.01,0.375 15.008,0.643 5.908,0.314 11.824,0.666 17.724,1.064 6.819,0.459 13.638,0.956 20.449,1.492 l 0.383,0.031 -0.062,0.765 -0.382,-0.03 c -6.811,-0.536 -13.623,-1.034 -20.434,-1.493 -5.908,-0.398 -11.809,-0.75 -17.717,-1.064 -4.997,-0.267 -9.995,-0.482 -14.992,-0.642 -4.087,-0.138 -8.174,-0.207 -12.26,-0.215 -3.161,-0.01 -6.322,0.061 -9.482,0.215 -1.24,0.061 -2.48,0.153 -3.72,0.26 -1.018,0.092 -2.035,0.222 -3.046,0.375 -0.788,0.115 -1.576,0.275 -2.349,0.467 -0.574,0.145 -1.125,0.329 -1.661,0.566 -0.344,0.145 -0.658,0.36 -0.918,0.62 -0.153,0.145 -0.238,0.344 -0.253,0.551 z"
       fill="rgb(255,255,255)"
       vector-effect="non-scaling-stroke"
       stroke-width="0.1"
       stroke="rgb(255,255,255)"
       stroke-linejoin="miter"
       stroke-linecap="square"
       stroke-miterlimit="3"
       id="path10"
       style="fill:none;stroke:#000000;stroke-width:1;stroke-dasharray:none;stroke-opacity:1" />
    <path
       d="m 1397.052,-1164.011 0.061,0.031 v 0.375 0.36 c -6.811,0.535 -13.63,1.033 -20.449,1.492 -5.9,0.398 -11.816,0.75 -17.724,1.064 -4.998,0.267 -10.003,0.482 -15.008,0.642 -4.094,0.138 -8.189,0.207 -12.283,0.215 -3.176,0.01 -6.352,-0.061 -9.521,-0.215 -1.255,-0.061 -2.502,-0.153 -3.75,-0.267 -1.033,-0.092 -2.066,-0.215 -3.091,-0.375 -0.812,-0.123 -1.623,-0.284 -2.427,-0.483 -0.604,-0.153 -1.201,-0.352 -1.767,-0.612 -0.437,-0.176 -0.827,-0.444 -1.164,-0.773 -0.275,-0.275 -0.451,-0.65 -0.474,-1.048 l 0.383,-0.436 0.359,0.01 0.023,0.383 c 0.015,0.207 0.1,0.406 0.253,0.551 0.26,0.26 0.574,0.474 0.918,0.62 0.536,0.237 1.087,0.421 1.661,0.566 0.773,0.191 1.561,0.352 2.349,0.467 1.011,0.153 2.028,0.283 3.046,0.375 1.24,0.107 2.48,0.199 3.72,0.26 3.16,0.153 6.321,0.222 9.482,0.214 4.086,-0.01 8.173,-0.076 12.26,-0.214 4.997,-0.161 9.995,-0.375 14.992,-0.643 5.908,-0.313 11.809,-0.665 17.717,-1.063 6.811,-0.46 13.623,-0.957 20.434,-1.493 z"
       fill="rgb(255,255,255)"
       vector-effect="non-scaling-stroke"
       stroke-width="0.1"
       stroke="rgb(255,255,255)"
       stroke-linejoin="miter"
       stroke-linecap="square"
       stroke-miterlimit="3"
       id="path11"
       style="fill:none;stroke:#000000;stroke-width:1;stroke-dasharray:none;stroke-opacity:1" />
  </g>
  <g
     id="g41"
     transform="rotate(-90,33.4027,-944.59766)"
     inkscape:export-filename="top"
     inkscape:export-xdpi="96"
     inkscape:export-ydpi="96">
    <path
       d="m -416,-809 4.088,-1.363 12.265,-1.363 9.54,-1.362 17.716,-2.726 6.814,-193.516 9.369,-1.363 h 3.578 41.395 5.621 l 6.814,1.363 14.991,186.702 51.786,-10.902 34.07,-8.177 125.376,-34.07 27.256,-8.176 40.884,-9.54 20.442,-4.088 19.079,-1.363 12.265,-10.903 11.528,-292.321 6.188,-188.744 2.726,-1.362 9.362,-1.363 16.19,-1.363 h 10.902 27.256 24.702 19.229 l 10.921,1.363 2.787,1.701 17.655,490.266 2.726,4.089 4.088,1.362 54.512,2.726 51.786,5.451 21.805,4.089 24.53,5.451 13.628,5.451 10.902,6.814 10.902,10.902 10.903,10.902 4.088,1.363 28.619,8.177 16.353,6.814 10.903,5.451 8.176,6.814 2.726,2.726 1.363,2.725 V -809"
       fill="none"
       vector-effect="non-scaling-stroke"
       stroke-width="1"
       stroke="rgb(255,255,255)"
       stroke-opacity="100"
       stroke-linejoin="miter"
       stroke-linecap="square"
       stroke-miterlimit="3"
       id="path12"
       style="fill:none;stroke:#000000;stroke-width:1;stroke-dasharray:none;stroke-opacity:1" />
    <path
       d="m -416,-809 4.088,1.363 12.265,1.363 9.54,1.362 17.716,2.726 6.814,193.516 9.369,1.363 h 3.578 41.395 5.621 l 6.814,-1.363 14.991,-186.702 51.786,10.902 34.07,8.177 125.376,34.07 27.256,8.176 40.884,9.54 20.442,4.088 19.079,1.363 12.265,10.903 11.528,292.321 6.188,188.744 2.726,1.362 9.362,1.363 16.19,1.363 h 10.902 27.256 24.702 19.229 l 10.921,-1.363 2.787,-1.701 17.655,-490.266 2.726,-4.089 4.088,-1.362 54.512,-2.726 51.786,-5.451 21.805,-4.089 24.53,-5.451 13.628,-5.451 10.902,-6.814 10.902,-10.902 10.903,-10.902 4.088,-1.363 28.619,-8.177 16.353,-6.814 10.903,-5.451 8.176,-6.814 2.726,-2.726 1.363,-2.725 V -809"
       fill="none"
       vector-effect="non-scaling-stroke"
       stroke-width="1"
       stroke="rgb(255,255,255)"
       stroke-opacity="100"
       stroke-linejoin="miter"
       stroke-linecap="square"
       stroke-miterlimit="3"
       id="path13"
       style="fill:none;stroke:#000000;stroke-width:1;stroke-dasharray:none;stroke-opacity:1" />
    <path
       d="m 168.637,-809 v -32.707 l -5.451,-17.716 -4.088,-5.451 -8.177,-8.177 -5.451,-2.726 -9.54,-4.088 -10.902,-2.726 -13.628,-1.362 -16.353,-1.363 H 75.967 47.349 30.995 l -6.814,1.363 -6.814,1.362 -5.451,2.726 -5.451,4.088 -4.088,5.451 -4.089,8.177 -2.725,8.177 -1.363,5.451 v 13.628 25.893"
       fill="none"
       vector-effect="non-scaling-stroke"
       stroke-width="1"
       stroke="rgb(255,255,255)"
       stroke-opacity="100"
       stroke-linejoin="miter"
       stroke-linecap="square"
       stroke-miterlimit="3"
       id="path14"
       style="fill:none;stroke:#000000;stroke-width:1;stroke-dasharray:none;stroke-opacity:1" />
    <path
       d="m 168.637,-809 v 32.707 l -5.451,17.716 -4.088,5.451 -8.177,8.177 -5.451,2.726 -9.54,4.088 -10.902,2.726 -13.628,1.362 -16.353,1.363 H 75.967 47.349 30.995 l -6.814,-1.363 -6.814,-1.362 -5.451,-2.726 -5.451,-4.088 -4.088,-5.451 -4.089,-8.177 -2.725,-8.177 -1.363,-5.451 V -783.107 -809"
       fill="none"
       vector-effect="non-scaling-stroke"
       stroke-width="1"
       stroke="rgb(255,255,255)"
       stroke-opacity="100"
       stroke-linejoin="miter"
       stroke-linecap="square"
       stroke-miterlimit="3"
       id="path15"
       style="fill:none;stroke:#000000;stroke-width:1;stroke-dasharray:none;stroke-opacity:1" />
    <line
       x1="413.94"
       y1="-843.07001"
       x2="413.94"
       y2="-774.92999"
       vector-effect="non-scaling-stroke"
       stroke-width="1"
       stroke="rgb(255,255,255)"
       stroke-opacity="100"
       stroke-linejoin="miter"
       stroke-linecap="square"
       stroke-miterlimit="3"
       id="line15"
       style="fill:none;stroke:#000000;stroke-width:1;stroke-dasharray:none;stroke-opacity:1" />
    <path
       d="m 213.609,-896.219 -42.246,-1.362 -20.442,-1.363 H 50.074 35.084"
       fill="none"
       vector-effect="non-scaling-stroke"
       stroke-width="1"
       stroke="rgb(255,255,255)"
       stroke-opacity="100"
       stroke-linejoin="miter"
       stroke-linecap="square"
       stroke-miterlimit="3"
       id="path16"
       style="fill:none;stroke:#000000;stroke-width:1;stroke-dasharray:none;stroke-opacity:1" />
    <path
       d="m 213.609,-721.781 -42.246,1.362 -20.442,1.363 H 50.074 35.084"
       fill="none"
       vector-effect="non-scaling-stroke"
       stroke-width="1"
       stroke="rgb(255,255,255)"
       stroke-opacity="100"
       stroke-linejoin="miter"
       stroke-linecap="square"
       stroke-miterlimit="3"
       id="path17"
       style="fill:none;stroke:#000000;stroke-width:1;stroke-dasharray:none;stroke-opacity:1" />
    <path
       d="m -283.809,-822.628 -5.451,1.363 -5.452,2.725 -4.088,4.089 -1.363,1.363 V -809"
       fill="none"
       vector-effect="non-scaling-stroke"
       stroke-width="1"
       stroke="rgb(255,255,255)"
       stroke-opacity="100"
       stroke-linejoin="miter"
       stroke-linecap="square"
       stroke-miterlimit="3"
       id="path18"
       style="fill:none;stroke:#000000;stroke-width:1;stroke-dasharray:none;stroke-opacity:1" />
    <path
       d="m -283.809,-795.372 -5.451,-1.363 -5.452,-2.725 -4.088,-4.089 -1.363,-1.363 V -809"
       fill="none"
       vector-effect="non-scaling-stroke"
       stroke-width="1"
       stroke="rgb(255,255,255)"
       stroke-opacity="100"
       stroke-linejoin="miter"
       stroke-linecap="square"
       stroke-miterlimit="3"
       id="path19"
       style="fill:none;stroke:#000000;stroke-width:1;stroke-dasharray:none;stroke-opacity:1" />
    <path
       d="m -372.391,-815.814 h 31.344 l 24.531,2.726 6.814,1.362 4.088,1.363 1.363,1.363"
       fill="none"
       vector-effect="non-scaling-stroke"
       stroke-width="1"
       stroke="rgb(255,255,255)"
       stroke-opacity="100"
       stroke-linejoin="miter"
       stroke-linecap="square"
       stroke-miterlimit="3"
       id="path20"
       style="fill:none;stroke:#000000;stroke-width:1;stroke-dasharray:none;stroke-opacity:1" />
    <path
       d="m -372.391,-802.186 h 31.344 l 24.531,-2.726 6.814,-1.362 4.088,-1.363 1.363,-1.363"
       fill="none"
       vector-effect="non-scaling-stroke"
       stroke-width="1"
       stroke="rgb(255,255,255)"
       stroke-opacity="100"
       stroke-linejoin="miter"
       stroke-linecap="square"
       stroke-miterlimit="3"
       id="path21"
       style="fill:none;stroke:#000000;stroke-width:1;stroke-dasharray:none;stroke-opacity:1" />
    <path
       d="m 59.614,-1203.531 h 31.344 l 4.089,-186.018 h 19.079 V -1395"
       fill="none"
       vector-effect="non-scaling-stroke"
       stroke-width="0.5"
       stroke="rgb(255,255,255)"
       stroke-opacity="100"
       stroke-linejoin="miter"
       stroke-linecap="square"
       stroke-miterlimit="3"
       id="path22"
       style="fill:none;stroke:#000000;stroke-width:1;stroke-dasharray:none;stroke-opacity:1" />
    <path
       d="m 59.614,-414.469 h 31.344 l 4.089,186.018 h 19.079 V -223"
       fill="none"
       vector-effect="non-scaling-stroke"
       stroke-width="0.5"
       stroke="rgb(255,255,255)"
       stroke-opacity="100"
       stroke-linejoin="miter"
       stroke-linecap="square"
       stroke-miterlimit="3"
       id="path23"
       style="fill:none;stroke:#000000;stroke-width:1;stroke-dasharray:none;stroke-opacity:1" />
    <path
       d="m -345.135,-815.814 v -190.791 h 20.442 v -4.088"
       fill="none"
       vector-effect="non-scaling-stroke"
       stroke-width="0.5"
       stroke="rgb(255,255,255)"
       stroke-opacity="100"
       stroke-linejoin="miter"
       stroke-linecap="square"
       stroke-miterlimit="3"
       id="path24"
       style="fill:none;stroke:#000000;stroke-width:1;stroke-dasharray:none;stroke-opacity:1" />
    <path
       d="m -345.135,-802.186 v 190.791 h 20.442 v 4.088"
       fill="none"
       vector-effect="non-scaling-stroke"
       stroke-width="0.5"
       stroke="rgb(255,255,255)"
       stroke-opacity="100"
       stroke-linejoin="miter"
       stroke-linecap="square"
       stroke-miterlimit="3"
       id="path25"
       style="fill:none;stroke:#000000;stroke-width:1;stroke-dasharray:none;stroke-opacity:1" />
    <path
       d="m -125.521,-846.504 -0.641,0.204 v 0 l 0.641,-0.204 33.647,-11.556 27.27,-9.54 25.947,-7.482 21.832,-4.088 21.818,-4.088 9.54,-1.363 8.231,-1.377 h 8.231 0.682 v 1.363 h -0.682 -8.122 l -8.122,1.349 -9.54,1.363 -21.791,4.088 -21.777,4.089 -25.839,6.8 -27.242,9.526 z"
       fill="rgb(255,255,255)"
       id="path26"
       style="fill:none;stroke:#000000;stroke-width:1;stroke-dasharray:none;stroke-opacity:1" />
    <path
       d="m -125.521,-771.496 -0.641,-0.204 v 0 l 0.641,0.204 33.647,11.556 27.27,9.54 8.1,2.336 17.847,5.146 21.832,4.088 21.818,4.088 9.54,1.363 8.231,1.377 h 8.231 0.682 v -1.363 h -0.682 -8.122 l -8.122,-1.349 -9.54,-1.363 -21.791,-4.088 -21.777,-4.089 -25.839,-6.8 -27.242,-9.526 z"
       fill="rgb(255,255,255)"
       id="path27"
       style="fill:none;stroke:#000000;stroke-width:1;stroke-dasharray:none;stroke-opacity:1" />
  </g>
  <g
     id="g42"
     transform="translate(-687.99959,274.59337)"
     inkscape:export-filename="front"
     inkscape:export-xdpi="96"
     inkscape:export-ydpi="96">
    <path
       d="m 857,-554 h 22 c 6.483,0.258 11.827,0.601 16,1 22.887,1.174 35.897,13.851 39,38 l 1,12 c 0.828,1.245 3.182,3.598 5,5 2.662,3.412 3.682,5.765 5,9 0.672,3.035 1.015,5.045 1,6 l 1,30 v 16 3.563 c -0.128,2.09 -0.1,5.404 3,6.437 6.784,1.03 21.106,-0.789 40,-2 l 32,-2 37,-2 44,-3 63,-3 39,-2 64,-4 96,-5 55,-3 19,-1 c 2.566,0.407 3.959,2.144 4,5.031 V -439 c 0.023,2.634 -0.947,3.997 -3,4 l -50,3 -65,3 -232,15 -51,4 -77,4 -10,1 -11,1 -9,1 -8,1 -6,1 -8,1 -12,1 -25,1 h -11 -8"
       fill="none"
       vector-effect="non-scaling-stroke"
       stroke-width="1"
       stroke="rgb(255,255,255)"
       stroke-opacity="100"
       stroke-linejoin="miter"
       stroke-linecap="square"
       stroke-miterlimit="3"
       id="path28"
       style="fill:none;stroke:#000000;stroke-width:1;stroke-dasharray:none;stroke-opacity:1" />
    <path
       d="m 857,-554 h -22 c -6.483,0.258 -11.827,0.601 -16,1 -22.887,1.174 -35.897,13.851 -39,38 l -1,12 c -0.828,1.245 -3.182,3.598 -5,5 -2.662,3.412 -3.682,5.765 -5,9 -0.672,3.035 -1.015,5.045 -1,6 l -1,30 v 16 3.563 c 0.128,2.09 0.1,5.404 -3,6.437 -6.784,1.03 -21.106,-0.789 -40,-2 l -32,-2 -37,-2 -44,-3 -63,-3 -39,-2 -64,-4 -96,-5 -55,-3 -19,-1 c -2.566,0.407 -3.959,2.144 -4,5.031 V -439 c -0.023,2.634 0.947,3.997 3,4 l 50,3 65,3 232,15 51,4 77,4 10,1 11,1 9,1 8,1 6,1 8,1 12,1 25,1 h 11 8"
       fill="none"
       vector-effect="non-scaling-stroke"
       stroke-width="1"
       stroke="rgb(255,255,255)"
       stroke-opacity="100"
       stroke-linejoin="miter"
       stroke-linecap="square"
       stroke-miterlimit="3"
       id="path29"
       style="fill:none;stroke:#000000;stroke-width:1;stroke-dasharray:none;stroke-opacity:1" />
    <path
       d="m 947,-436 c -0.54,3.355 -2.116,4.989 -3,9 -2.278,13.671 -10.724,24.098 -24,26 v 0"
       fill="none"
       vector-effect="non-scaling-stroke"
       stroke-width="1"
       stroke="rgb(255,255,255)"
       stroke-opacity="100"
       stroke-linejoin="miter"
       stroke-linecap="square"
       stroke-miterlimit="3"
       id="path30"
       style="fill:none;stroke:#000000;stroke-width:1;stroke-dasharray:none;stroke-opacity:1" />
    <path
       d="m 767,-436 c 0.54,3.355 2.116,4.989 3,9 2.278,13.671 10.724,24.098 24,26 v 0"
       fill="none"
       vector-effect="non-scaling-stroke"
       stroke-width="1"
       stroke="rgb(255,255,255)"
       stroke-opacity="100"
       stroke-linejoin="miter"
       stroke-linecap="square"
       stroke-miterlimit="3"
       id="path31"
       style="fill:none;stroke:#000000;stroke-width:1;stroke-dasharray:none;stroke-opacity:1" />
    <path
       d="m 857,-630 h 1 c 0.745,0.162 1.938,1.5 2,5 v 0 l 1,28 v 9 8 l 1,26"
       fill="none"
       vector-effect="non-scaling-stroke"
       stroke-width="1"
       stroke="rgb(255,255,255)"
       stroke-opacity="100"
       stroke-linejoin="miter"
       stroke-linecap="square"
       stroke-miterlimit="3"
       id="path32"
       style="fill:none;stroke:#000000;stroke-width:1;stroke-dasharray:none;stroke-opacity:1" />
    <path
       d="m 857,-630 h -1 c -0.745,0.162 -1.937,1.5 -2,5 v 0 l -1,28 v 9 8 l -1,26"
       fill="none"
       vector-effect="non-scaling-stroke"
       stroke-width="1"
       stroke="rgb(255,255,255)"
       stroke-opacity="100"
       stroke-linejoin="miter"
       stroke-linecap="square"
       stroke-miterlimit="3"
       id="path33"
       style="fill:none;stroke:#000000;stroke-width:1;stroke-dasharray:none;stroke-opacity:1" />
    <path
       d="m 946,-481 h 110 c 3.018,0.436 4.476,1.977 4.254,4.504 0.366,2.45 -1.042,3.959 -4.254,4.496 l -109,1"
       fill="none"
       vector-effect="non-scaling-stroke"
       stroke-width="1"
       stroke="rgb(255,255,255)"
       stroke-opacity="100"
       stroke-linejoin="miter"
       stroke-linecap="square"
       stroke-miterlimit="3"
       id="path34"
       style="fill:none;stroke:#000000;stroke-width:1;stroke-dasharray:none;stroke-opacity:1" />
    <path
       d="M 767,-481 H 657 c -3.018,0.436 -4.476,1.977 -4.254,4.504 -0.366,2.45 1.042,3.959 4.254,4.496 l 110,1"
       fill="none"
       vector-effect="non-scaling-stroke"
       stroke-width="1"
       stroke="rgb(255,255,255)"
       stroke-opacity="100"
       stroke-linejoin="miter"
       stroke-linecap="square"
       stroke-miterlimit="3"
       id="path35"
       style="fill:none;stroke:#000000;stroke-width:1;stroke-dasharray:none;stroke-opacity:1" />
    <path
       d="m 858,-512 c 34.339,0.404 59.683,2.747 76,7"
       fill="none"
       vector-effect="non-scaling-stroke"
       stroke-width="1"
       stroke="rgb(255,255,255)"
       stroke-opacity="100"
       stroke-linejoin="miter"
       stroke-linecap="square"
       stroke-miterlimit="3"
       id="path36"
       style="fill:none;stroke:#000000;stroke-width:1;stroke-dasharray:none;stroke-opacity:1" />
    <path
       d="m 857,-512 c 34.339,0.404 60.683,2.747 77,7"
       fill="none"
       vector-effect="non-scaling-stroke"
       stroke-width="1"
       stroke="rgb(255,255,255)"
       stroke-opacity="100"
       stroke-linejoin="miter"
       stroke-linecap="square"
       stroke-miterlimit="3"
       id="path37"
       style="fill:none;stroke:#000000;stroke-width:1;stroke-dasharray:none;stroke-opacity:1" />
    <path
       d="m 856.5,-512 c -34.339,0.404 -60.683,2.747 -77,7"
       fill="none"
       vector-effect="non-scaling-stroke"
       stroke-width="1"
       stroke="rgb(255,255,255)"
       stroke-opacity="100"
       stroke-linejoin="miter"
       stroke-linecap="square"
       stroke-miterlimit="3"
       id="path38"
       style="fill:none;stroke:#000000;stroke-width:1;stroke-dasharray:none;stroke-opacity:1" />
    <path
       d="m 822,-453.25 c 0,-19.179 15.459,-34.75 34.5,-34.75 19.041,0 34.5,15.571 34.5,34.75 0,19.179 -15.459,34.75 -34.5,34.75 -19.041,0 -34.5,-15.571 -34.5,-34.75 z"
       fill="none"
       vector-effect="non-scaling-stroke"
       stroke-width="1"
       stroke="rgb(255,255,255)"
       stroke-opacity="100"
       stroke-linejoin="miter"
       stroke-linecap="square"
       stroke-miterlimit="3"
       id="path39"
       style="fill:none;stroke:#000000;stroke-width:1;stroke-dasharray:none;stroke-opacity:1" />
    <path
       d="m 821.471,-453.019 h -14.404 c -1.458,-0.257 -2.154,-0.933 -2.058,-2.058 v -5.144 c 0.343,-0.6 1.018,-0.933 2.058,-1.029 H 822.5 c -0.446,1.766 -0.748,4.551 -1.029,8.231 z"
       fill="none"
       vector-effect="non-scaling-stroke"
       stroke-width="1"
       stroke="rgb(255,255,255)"
       stroke-opacity="100"
       stroke-linejoin="miter"
       stroke-linecap="square"
       stroke-miterlimit="3"
       id="path40"
       style="fill:none;stroke:#000000;stroke-width:1;stroke-dasharray:none;stroke-opacity:1" />
    <path
       d="m 891.429,-453.25 h 14.404 c 1.458,-0.257 2.154,-0.933 2.058,-2.058 v -5.144 c -0.343,-0.6 -1.018,-0.933 -2.058,-1.029 H 890.4 c 0.446,1.766 0.748,4.551 1.029,8.231 z"
       fill="none"
       vector-effect="non-scaling-stroke"
       stroke-width="1"
       stroke="rgb(255,255,255)"
       stroke-opacity="100"
       stroke-linejoin="miter"
       stroke-linecap="square"
       stroke-miterlimit="3"
       id="path41"
       style="fill:none;stroke:#000000;stroke-width:1;stroke-dasharray:none;stroke-opacity:1" />
  </g>
  <rect
     style="fill:none;stroke:#000000;stroke-width:0.719415"
     id="rect1"
     width="409.48456"
     height="1172.2805"
     x="842.12341"
     y="-1539.8617" />
</svg>
