<?xml version="1.0" encoding="UTF-8" standalone="no"?>
<!-- Created with Inkscape (http://www.inkscape.org/) -->

<svg
   width="1444.9778mm"
   height="1444.9778mm"
   viewBox="0 0 1444.9778 1444.9778"
   version="1.1"
   id="svg1"
   xml:space="preserve"
   inkscape:export-filename="texture.png"
   inkscape:export-xdpi="96"
   inkscape:export-ydpi="96"
   inkscape:version="1.4 (e7c3feb1, 2024-10-09)"
   sodipodi:docname="texture.svg"
   xmlns:inkscape="http://www.inkscape.org/namespaces/inkscape"
   xmlns:sodipodi="http://sodipodi.sourceforge.net/DTD/sodipodi-0.dtd"
   xmlns:xlink="http://www.w3.org/1999/xlink"
   xmlns="http://www.w3.org/2000/svg"
   xmlns:svg="http://www.w3.org/2000/svg"><sodipodi:namedview
     id="namedview1"
     pagecolor="#ffffff"
     bordercolor="#000000"
     borderopacity="0.25"
     inkscape:showpageshadow="2"
     inkscape:pageopacity="0.0"
     inkscape:pagecheckerboard="0"
     inkscape:deskcolor="#d1d1d1"
     inkscape:document-units="mm"
     inkscape:export-bgcolor="#ffffffff"
     inkscape:zoom="0.25845403"
     inkscape:cx="342.42066"
     inkscape:cy="2828.356"
     inkscape:window-width="1472"
     inkscape:window-height="805"
     inkscape:window-x="0"
     inkscape:window-y="38"
     inkscape:window-maximized="0"
     inkscape:current-layer="layer1"
     showguides="true" /><defs
     id="defs1" /><g
     inkscape:label="Layer 1"
     inkscape:groupmode="layer"
     id="layer1"
     transform="translate(614.0097,574.05762)"><image
       width="1444.978"
       height="1444.978"
       preserveAspectRatio="none"
       xlink:href="texture_layout.png"
       id="image1"
       x="-614.0097"
       y="-574.05762"
       transform="translate(4.5833333e-6)" /><path
       d="m -502.67117,-542.9842 c -124.10894,-10.56366 -115.18235,430.01454 -94.14305,608.291545 16.41947,139.130855 82.98959,237.340055 141.4184,450.091405 21.93617,79.87413 73.4816,353.3638 73.4816,353.3638 l 34.36472,-6.45247 c 0,0 -50.55664,-270.33696 -74.12969,-356.17129 -59.27906,-215.84728 -118.85715,-315.5171 -140.67458,-446.749771 -20.29005,-122.045447 -15.52888,-182.255359 17.64028,-428.339709 z"
       id="path3"
       sodipodi:nodetypes="cssccsscc"
       style="fill:#000000;fill-opacity:1" /><path
       style="fill:none;stroke:#ff1bae;stroke-width:14.865;stroke-dasharray:none;stroke-opacity:1"
       d="m -613.0419,-11.999419 c 20.02211,154.506799 99.41324,325.267789 160.2166,527.021319 24.79324,82.2672 78.91224,353.6872 78.91224,353.6872"
       id="path7"
       sodipodi:nodetypes="csc" /><path
       style="fill:#ff1bae;fill-opacity:1;stroke:none;stroke-width:14.865;stroke-dasharray:none;stroke-opacity:1"
       d="M -630.62095,1.1016051 C -580.29114,252.35529 -576.8567,196.56137 -539.93724,351.3695 -532.87441,185.98322 -584.45882,157.51002 -611.32773,-10.991235 Z"
       id="path8"
       sodipodi:nodetypes="cccc" /><path
       style="fill:#ff1bae;fill-opacity:1;stroke:none;stroke-width:19.665;stroke-dasharray:none;stroke-opacity:1"
       d="m -629.30597,-179.42624 30.98646,-73.13118 3.09336,91.90226 z"
       id="path9"
       sodipodi:nodetypes="cccc" /><path
       id="path15"
       style="fill:none;stroke:#000000;stroke-width:19.665;stroke-dasharray:none;stroke-opacity:1"
       d="m -188.41644,-587.34735 c 56.70359,139.58581 69.45469,238.68678 59.53096,375.73792 -21.09245,291.29606 -111.93283,512.21381 -203.85085,512.21381 -91.91802,0 -182.7584,-220.917752 -203.85085,-512.21381 -9.92373,-137.05114 2.82737,-236.15211 59.53096,-375.73792"
       sodipodi:nodetypes="csssc" /><path
       d="m -162.80149,-542.9842 c 124.10894,-10.56366 115.18235,430.01454 94.14305,608.291547 -16.41947,139.130853 -82.98959,237.340053 -141.4184,450.091403 -21.93617,79.87413 -73.4816,353.3638 -73.4816,353.3638 l -34.36472,-6.45247 c 0,0 50.55664,-270.33696 74.12969,-356.17129 59.27906,-215.84728 118.85715,-315.5171 140.67458,-446.749769 20.29005,-122.045447 15.52888,-182.255361 -17.64028,-428.339711 z"
       id="path16"
       sodipodi:nodetypes="cssccsscc"
       style="fill:#000000;fill-opacity:1" /><path
       id="path17"
       style="fill:#cccccc;stroke-width:0.264583"
       d="m -554.90462,-223.38835 c -44.68558,317.115037 116.3122,662.97347 222.16829,662.97347 105.85609,0 266.85387,-345.858431 222.16829,-662.97347 -15.62313,396.21654 -153.65764,587.12797 -222.16829,587.12797 -68.51065,0 -206.54516,-190.91143 -222.16829,-587.12797 z"
       sodipodi:nodetypes="cscsc" /><path
       id="path18"
       style="fill:#000000;stroke-width:0.264583"
       d="m -471.85287,-581.52722 c -66.0904,172.60423 -43.45705,570.926345 139.11654,570.926346 182.57359,10e-7 205.20694,-398.322116 139.11654,-570.926346 l -139.11654,-4e-5 z"
       sodipodi:nodetypes="csccc" /><path
       id="path19"
       style="fill:#32444e;fill-opacity:1;stroke-width:0.237202"
       d="m -213.16943,140.91375 c 30.396,-142.0395154 13.14046,-237.530795 -119.5669,-237.530796 -132.70736,-10e-7 -149.9629,95.4912783 -119.5669,237.530796 37.75678,31.81791 55.45065,58.90474 119.5669,58.90474 64.11625,0 81.81012,-27.08683 119.5669,-58.90474 z"
       sodipodi:nodetypes="cscsc" /><path
       style="fill:none;stroke:#ff1bae;stroke-width:14.865;stroke-dasharray:none;stroke-opacity:1"
       d="M -52.43076,-11.999417 C -72.45287,142.50738 -151.844,313.26837 -212.64736,515.0219 -237.4406,597.2891 -291.5596,868.7091 -291.5596,868.7091"
       id="path20"
       sodipodi:nodetypes="csc" /><path
       style="fill:#ff1bae;fill-opacity:1;stroke:none;stroke-width:14.865;stroke-dasharray:none;stroke-opacity:1"
       d="M -34.85171,1.1016074 C -85.18152,252.35529 -88.61596,196.56137 -125.53542,351.3695 -132.59825,185.98322 -81.01384,157.51002 -54.14493,-10.991233 Z"
       id="path21"
       sodipodi:nodetypes="cccc" /><path
       style="fill:#ff1bae;fill-opacity:1;stroke:none;stroke-width:19.665;stroke-dasharray:none;stroke-opacity:1"
       d="m -36.16669,-179.42624 -30.98646,-73.13118 -3.09336,91.90226 z"
       id="path22"
       sodipodi:nodetypes="cccc" /><path
       style="fill:#ffffff;fill-opacity:1;stroke:none;stroke-width:19.665;stroke-dasharray:none;stroke-opacity:1"
       d="m -127.96705,136.00611 -55.18506,59.97713 42.22869,-14.92513 z"
       id="path23"
       sodipodi:nodetypes="cccc" /><g
       id="g27"><path
         style="opacity:1;fill:#000000;fill-opacity:1;stroke:#000000;stroke-width:26.165;stroke-dasharray:none;stroke-opacity:1"
         d="M 8.6507356,-102.98577 C 94.610731,-96.617045 132.29596,-66.514353 208.4624,-63.023423"
         id="path24"
         sodipodi:nodetypes="cc" /><g
         id="path25"><path
           d="M 8.6507356,-44.968309 C 94.610731,-38.599584 132.29596,-8.4968915 208.4624,-5.0059615"
           id="path26" /><path
           style="fill:#cccccc"
           d="m 9.0566406,-50.453125 -0.8125,10.970703 c 42.4022874,3.14156 72.7427314,15.352023 102.4296894,24.110107 29.68695,8.7580834 58.77303,17.3444226 97.53711,19.1210932 L 208.71484,-10.5 C 171.31248,-12.214259 143.47242,-20.425418 113.78516,-29.183594 84.097889,-37.94177 52.614349,-47.22596 9.0566406,-50.453125 Z"
           id="path27"
           sodipodi:nodetypes="ccsccsc" /></g></g><g
       id="g34"
       transform="matrix(-1,0,0,1,481.13909,0)"><path
         style="opacity:1;fill:#000000;fill-opacity:1;stroke:#000000;stroke-width:26.165;stroke-dasharray:none;stroke-opacity:1"
         d="M 8.6507356,-102.98577 C 94.610731,-96.617045 132.29596,-66.514353 208.4624,-63.023423"
         id="path31"
         sodipodi:nodetypes="cc" /><g
         id="g33"><path
           d="M 8.6507356,-44.968309 C 94.610731,-38.599584 132.29596,-8.4968915 208.4624,-5.0059615"
           id="path32" /><path
           style="fill:#cccccc"
           d="m 9.0566406,-50.453125 -0.8125,10.970703 c 42.4022874,3.14156 72.7427314,15.352023 102.4296894,24.110107 29.68695,8.7580834 58.77303,17.3444226 97.53711,19.1210932 L 208.71484,-10.5 C 171.31248,-12.214259 143.47242,-20.425418 113.78516,-29.183594 84.097889,-37.94177 52.614349,-47.22596 9.0566406,-50.453125 Z"
           id="path33"
           sodipodi:nodetypes="ccsccsc" /></g></g><path
       id="path36"
       style="opacity:1;fill:#000000;fill-opacity:1;stroke:none;stroke-width:11;stroke-dasharray:none;stroke-opacity:1"
       d="m 119.7658,-422.87094 14.74984,-138.89058 h 109.12791 109.1279 l 14.74985,138.89058 c -29.44632,-79.57288 -86.02191,-95.34738 -123.87775,-95.34738 -37.85584,0 -94.43144,15.7745 -123.87775,95.34738 z"
       sodipodi:nodetypes="ccsccsc" /><path
       style="fill:#ffffff;fill-opacity:1;stroke:none;stroke-width:19.665;stroke-dasharray:none;stroke-opacity:1"
       d="m -537.50561,136.00611 55.18506,59.97713 -42.22869,-14.92513 z"
       id="path10"
       sodipodi:nodetypes="cccc" /></g></svg>
